<svg width="315" height="34" viewBox="0 0 315 34" fill="none" xmlns="http://www.w3.org/2000/svg">
<path d="M0.12 21.8C0.12 19.5067 0.546667 17.4933 1.4 15.76C2.28 14.0267 3.46667 12.6933 4.96 11.76C6.45333 10.8267 8.12 10.36 9.96 10.36C11.5333 10.36 12.9067 10.68 14.08 11.32C15.28 11.96 16.2 12.8 16.84 13.84V10.68H23.68V33H16.84V29.84C16.1733 30.88 15.24 31.72 14.04 32.36C12.8667 33 11.4933 33.32 9.92 33.32C8.10667 33.32 6.45333 32.8533 4.96 31.92C3.46667 30.96 2.28 29.6133 1.4 27.88C0.546667 26.12 0.12 24.0933 0.12 21.8ZM16.84 21.84C16.84 20.1333 16.36 18.7867 15.4 17.8C14.4667 16.8133 13.32 16.32 11.96 16.32C10.6 16.32 9.44 16.8133 8.48 17.8C7.54667 18.76 7.08 20.0933 7.08 21.8C7.08 23.5067 7.54667 24.8667 8.48 25.88C9.44 26.8667 10.6 27.36 11.96 27.36C13.32 27.36 14.4667 26.8667 15.4 25.88C16.36 24.8933 16.84 23.5467 16.84 21.84ZM27.2684 21.8C27.2684 19.5067 27.6951 17.4933 28.5484 15.76C29.4284 14.0267 30.6151 12.6933 32.1084 11.76C33.6018 10.8267 35.2684 10.36 37.1084 10.36C38.5751 10.36 39.9084 10.6667 41.1084 11.28C42.3351 11.8933 43.2951 12.72 43.9884 13.76V3.4H50.8284V33H43.9884V29.8C43.3484 30.8667 42.4284 31.72 41.2284 32.36C40.0551 33 38.6818 33.32 37.1084 33.32C35.2684 33.32 33.6018 32.8533 32.1084 31.92C30.6151 30.96 29.4284 29.6133 28.5484 27.88C27.6951 26.12 27.2684 24.0933 27.2684 21.8ZM43.9884 21.84C43.9884 20.1333 43.5084 18.7867 42.5484 17.8C41.6151 16.8133 40.4684 16.32 39.1084 16.32C37.7484 16.32 36.5884 16.8133 35.6284 17.8C34.6951 18.76 34.2284 20.0933 34.2284 21.8C34.2284 23.5067 34.6951 24.8667 35.6284 25.88C36.5884 26.8667 37.7484 27.36 39.1084 27.36C40.4684 27.36 41.6151 26.8667 42.5484 25.88C43.5084 24.8933 43.9884 23.5467 43.9884 21.84ZM54.4169 21.8C54.4169 19.5067 54.8435 17.4933 55.6969 15.76C56.5769 14.0267 57.7635 12.6933 59.2569 11.76C60.7502 10.8267 62.4169 10.36 64.2569 10.36C65.8302 10.36 67.2035 10.68 68.3769 11.32C69.5769 11.96 70.4969 12.8 71.1369 13.84V10.68H77.9769V33H71.1369V29.84C70.4702 30.88 69.5369 31.72 68.3369 32.36C67.1635 33 65.7902 33.32 64.2169 33.32C62.4035 33.32 60.7502 32.8533 59.2569 31.92C57.7635 30.96 56.5769 29.6133 55.6969 27.88C54.8435 26.12 54.4169 24.0933 54.4169 21.8ZM71.1369 21.84C71.1369 20.1333 70.6569 18.7867 69.6969 17.8C68.7635 16.8133 67.6169 16.32 66.2569 16.32C64.8969 16.32 63.7369 16.8133 62.7769 17.8C61.8435 18.76 61.3769 20.0933 61.3769 21.8C61.3769 23.5067 61.8435 24.8667 62.7769 25.88C63.7369 26.8667 64.8969 27.36 66.2569 27.36C67.6169 27.36 68.7635 26.8667 69.6969 25.88C70.6569 24.8933 71.1369 23.5467 71.1369 21.84ZM93.0853 33.32C90.8986 33.32 88.9253 32.8533 87.1653 31.92C85.432 30.9867 84.0586 29.6533 83.0453 27.92C82.0586 26.1867 81.5653 24.16 81.5653 21.84C81.5653 19.5467 82.072 17.5333 83.0853 15.8C84.0986 14.04 85.4853 12.6933 87.2453 11.76C89.0053 10.8267 90.9786 10.36 93.1653 10.36C95.352 10.36 97.3253 10.8267 99.0853 11.76C100.845 12.6933 102.232 14.04 103.245 15.8C104.259 17.5333 104.765 19.5467 104.765 21.84C104.765 24.1333 104.245 26.16 103.205 27.92C102.192 29.6533 100.792 30.9867 99.0053 31.92C97.2453 32.8533 95.272 33.32 93.0853 33.32ZM93.0853 27.4C94.392 27.4 95.4986 26.92 96.4053 25.96C97.3386 25 97.8053 23.6267 97.8053 21.84C97.8053 20.0533 97.352 18.68 96.4453 17.72C95.5653 16.76 94.472 16.28 93.1653 16.28C91.832 16.28 90.7253 16.76 89.8453 17.72C88.9653 18.6533 88.5253 20.0267 88.5253 21.84C88.5253 23.6267 88.952 25 89.8053 25.96C90.6853 26.92 91.7786 27.4 93.0853 27.4ZM115.234 13.84C115.874 12.8 116.794 11.96 117.994 11.32C119.194 10.68 120.567 10.36 122.114 10.36C123.954 10.36 125.621 10.8267 127.114 11.76C128.607 12.6933 129.781 14.0267 130.634 15.76C131.514 17.4933 131.954 19.5067 131.954 21.8C131.954 24.0933 131.514 26.12 130.634 27.88C129.781 29.6133 128.607 30.96 127.114 31.92C125.621 32.8533 123.954 33.32 122.114 33.32C120.541 33.32 119.167 33.0133 117.994 32.4C116.821 31.76 115.901 30.92 115.234 29.88V33H108.394V3.4H115.234V13.84ZM124.994 21.8C124.994 20.0933 124.514 18.76 123.554 17.8C122.621 16.8133 121.461 16.32 120.074 16.32C118.714 16.32 117.554 16.8133 116.594 17.8C115.661 18.7867 115.194 20.1333 115.194 21.84C115.194 23.5467 115.661 24.8933 116.594 25.88C117.554 26.8667 118.714 27.36 120.074 27.36C121.434 27.36 122.594 26.8667 123.554 25.88C124.514 24.8667 124.994 23.5067 124.994 21.8ZM138.983 8.36C137.783 8.36 136.796 8.01333 136.023 7.32C135.276 6.6 134.903 5.72 134.903 4.68C134.903 3.61333 135.276 2.73333 136.023 2.04C136.796 1.32 137.783 0.959998 138.983 0.959998C140.156 0.959998 141.116 1.32 141.863 2.04C142.636 2.73333 143.023 3.61333 143.023 4.68C143.023 5.72 142.636 6.6 141.863 7.32C141.116 8.01333 140.156 8.36 138.983 8.36ZM142.383 10.68V33H135.543V10.68H142.383ZM178.483 20.96C178.483 21.92 178.457 22.6533 178.403 23.16H160.283C160.363 24.8133 160.763 26.2267 161.483 27.4C162.203 28.5733 163.15 29.4667 164.323 30.08C165.497 30.6667 166.777 30.96 168.163 30.96C169.977 30.96 171.497 30.52 172.723 29.64C173.977 28.76 174.803 27.5733 175.203 26.08H178.163C177.63 28.2133 176.483 29.96 174.723 31.32C172.99 32.6533 170.803 33.32 168.163 33.32C166.11 33.32 164.27 32.8667 162.643 31.96C161.017 31.0267 159.737 29.72 158.803 28.04C157.897 26.3333 157.443 24.3467 157.443 22.08C157.443 19.8133 157.897 17.8267 158.803 16.12C159.71 14.4133 160.977 13.1067 162.603 12.2C164.23 11.2933 166.083 10.84 168.163 10.84C170.243 10.84 172.057 11.2933 173.603 12.2C175.177 13.1067 176.377 14.3333 177.203 15.88C178.057 17.4 178.483 19.0933 178.483 20.96ZM175.643 20.88C175.67 19.2533 175.337 17.8667 174.643 16.72C173.977 15.5733 173.057 14.7067 171.883 14.12C170.71 13.5333 169.43 13.24 168.043 13.24C165.963 13.24 164.19 13.9067 162.723 15.24C161.257 16.5733 160.443 18.4533 160.283 20.88H175.643ZM185.086 30.68H196.526V33H181.886V30.68L193.126 13.48H182.086V11.16H196.326V13.48L185.086 30.68ZM221.023 20.96C221.023 21.92 220.996 22.6533 220.943 23.16H202.823C202.903 24.8133 203.303 26.2267 204.023 27.4C204.743 28.5733 205.689 29.4667 206.863 30.08C208.036 30.6667 209.316 30.96 210.703 30.96C212.516 30.96 214.036 30.52 215.263 29.64C216.516 28.76 217.343 27.5733 217.743 26.08H220.703C220.169 28.2133 219.023 29.96 217.263 31.32C215.529 32.6533 213.343 33.32 210.703 33.32C208.649 33.32 206.809 32.8667 205.183 31.96C203.556 31.0267 202.276 29.72 201.343 28.04C200.436 26.3333 199.983 24.3467 199.983 22.08C199.983 19.8133 200.436 17.8267 201.343 16.12C202.249 14.4133 203.516 13.1067 205.143 12.2C206.769 11.2933 208.623 10.84 210.703 10.84C212.783 10.84 214.596 11.2933 216.143 12.2C217.716 13.1067 218.916 14.3333 219.743 15.88C220.596 17.4 221.023 19.0933 221.023 20.96ZM218.183 20.88C218.209 19.2533 217.876 17.8667 217.183 16.72C216.516 15.5733 215.596 14.7067 214.423 14.12C213.249 13.5333 211.969 13.24 210.583 13.24C208.503 13.24 206.729 13.9067 205.263 15.24C203.796 16.5733 202.983 18.4533 202.823 20.88H218.183ZM236.385 10.76C238.999 10.76 241.132 11.5733 242.785 13.2C244.439 14.8 245.265 17.1333 245.265 20.2V33H242.505V20.52C242.505 18.1467 241.905 16.3333 240.705 15.08C239.532 13.8267 237.919 13.2 235.865 13.2C233.759 13.2 232.079 13.8667 230.825 15.2C229.572 16.5333 228.945 18.4933 228.945 21.08V33H226.145V11.16H228.945V14.88C229.639 13.5467 230.639 12.5333 231.945 11.84C233.252 11.12 234.732 10.76 236.385 10.76ZM280.258 11.16L273.418 33H270.618L264.578 14.68L258.538 33H255.698L248.858 11.16H251.698L257.138 30.16L263.258 11.16H266.058L272.098 30.2L277.498 11.16H280.258ZM282.795 22.04C282.795 19.8 283.235 17.84 284.115 16.16C285.022 14.4533 286.262 13.1467 287.835 12.24C289.435 11.3067 291.235 10.84 293.235 10.84C295.315 10.84 297.102 11.32 298.595 12.28C300.115 13.24 301.208 14.4667 301.875 15.96V11.16H304.675V33H301.875V28.16C301.182 29.6533 300.075 30.8933 298.555 31.88C297.062 32.84 295.275 33.32 293.195 33.32C291.222 33.32 289.435 32.8533 287.835 31.92C286.262 30.9867 285.022 29.6667 284.115 27.96C283.235 26.2533 282.795 24.28 282.795 22.04ZM301.875 22.08C301.875 20.32 301.515 18.7733 300.795 17.44C300.075 16.1067 299.088 15.08 297.835 14.36C296.608 13.64 295.248 13.28 293.755 13.28C292.208 13.28 290.822 13.6267 289.595 14.32C288.368 15.0133 287.395 16.0267 286.675 17.36C285.982 18.6667 285.635 20.2267 285.635 22.04C285.635 23.8267 285.982 25.4 286.675 26.76C287.395 28.0933 288.368 29.12 289.595 29.84C290.822 30.5333 292.208 30.88 293.755 30.88C295.248 30.88 296.608 30.52 297.835 29.8C299.088 29.08 300.075 28.0533 300.795 26.72C301.515 25.3867 301.875 23.84 301.875 22.08Z" fill="white"/>
<path d="M312.107 33.24C311.414 33.24 310.827 33 310.347 32.52C309.867 32.04 309.627 31.4533 309.627 30.76C309.627 30.0667 309.867 29.48 310.347 29C310.827 28.52 311.414 28.28 312.107 28.28C312.774 28.28 313.334 28.52 313.787 29C314.267 29.48 314.507 30.0667 314.507 30.76C314.507 31.4533 314.267 32.04 313.787 32.52C313.334 33 312.774 33.24 312.107 33.24Z" fill="#F83126"/>
</svg>
